
<svg xmlns="http://www.w3.org/2000/svg" version="1.1" viewBox="0.00 0.00 511.00 117.00">
<g stroke-width="2.00" fill="none" stroke-linecap="butt">
<path stroke="#496e71" vector-effect="non-scaling-stroke" d="
  M 342.12 38.78
  L 317.32 52.90"
/>
<path stroke="#496e71" vector-effect="non-scaling-stroke" d="
  M 312.90 50.02
  L 323.68 43.89"
/>
<path stroke="#496e71" vector-effect="non-scaling-stroke" d="
  M 326.80 42.14
  L 337.51 36.06
  Q 339.20 35.10 337.26 35.13
  L 326.81 35.30"
/>
<path stroke="#496e71" vector-effect="non-scaling-stroke" d="
  M 317.97 39.62
  Q 310.81 43.16 304.99 47.55"
/>
<path stroke="#496e71" vector-effect="non-scaling-stroke" d="
  M 304.31 102.75
  L 306.50 105.05
  Q 306.87 105.43 307.33 105.17
  L 319.01 98.56
  Q 319.45 98.31 319.21 97.87
  Q 318.85 97.21 318.19 96.73"
/>
<path stroke="#496e71" vector-effect="non-scaling-stroke" d="
  M 319.18 54.49
  Q 326.64 48.17 337.00 48.33
  C 339.17 48.36 340.36 47.53 342.04 46.45"
/>
<path stroke="#496e71" vector-effect="non-scaling-stroke" d="
  M 331.29 103.35
  Q 327.85 102.84 324.97 101.38
  A 1.54 1.53 43.7 0 0 323.51 101.41
  L 311.53 108.20
  Q 310.43 108.82 311.49 109.49
  L 315.55 112.06
  A 2.41 2.40 -42.7 0 0 317.97 112.15
  L 327.01 107.29"
/>
</g>
<path fill="#60318a" d="
  M 332.88 0.00
  L 336.05 0.00
  Q 342.04 1.56 342.02 7.75
  Q 341.96 23.28 342.12 38.78
  L 317.32 52.90
  L 312.90 50.02
  L 323.68 43.89
  L 326.29 46.66
  Q 326.77 47.18 326.78 46.47
  L 326.80 42.14
  L 337.51 36.06
  Q 339.20 35.10 337.26 35.13
  L 326.81 35.30
  Q 326.79 21.51 326.87 7.75
  Q 326.91 1.62 332.88 0.00
  Z"
/>
<path fill="#32ab57" d="
  M 362.18 8.97
  A 0.13 0.13 0.0 0 1 362.01 8.92
  L 361.97 8.86
  A 6.49 4.18 -29.3 0 1 365.58 2.03
  L 365.81 1.91
  A 6.49 4.18 -29.3 0 1 373.52 2.38
  L 373.55 2.44
  A 0.13 0.13 0.0 0 1 373.50 2.61
  L 362.18 8.97
  Z"
/>
<circle fill="#32ab57" cx="403.67" cy="12.35" r="9.38"/>
<path fill="#32ab57" d="
  M 361.91 14.63
  L 376.47 6.36
  A 0.31 0.31 0.0 0 1 376.93 6.62
  L 377.04 13.39
  A 0.31 0.31 0.0 0 1 376.88 13.66
  L 362.21 21.99
  A 0.31 0.31 0.0 0 1 361.75 21.72
  L 361.75 14.90
  A 0.31 0.31 0.0 0 1 361.91 14.63
  Z"
/>
<path fill="#32ab57" d="
  M 376.83 26.69
  L 362.24 34.97
  A 0.33 0.33 0.0 0 1 361.75 34.68
  L 361.75 27.91
  A 0.33 0.33 0.0 0 1 361.92 27.63
  L 376.51 19.34
  A 0.33 0.33 0.0 0 1 377.00 19.63
  L 377.00 26.41
  A 0.33 0.33 0.0 0 1 376.83 26.69
  Z"
/>
<path fill="#32ab57" d="
  M 361.76 48.15
  L 361.76 41.25
  Q 361.76 40.72 362.23 40.45
  L 376.76 32.20
  A 0.15 0.15 0.0 0 1 376.99 32.33
  L 377.00 39.27
  Q 377.01 39.60 376.72 39.76
  L 362.30 47.94
  A 0.21 0.16 -53.3 0 1 362.20 47.97
  Q 361.84 47.97 361.76 48.15
  Z"
/>
<path fill="#32ab57" d="
  M 511.00 65.88
  L 511.00 106.46
  Q 508.37 113.59 501.35 111.68
  C 497.49 110.64 496.47 107.09 496.48 103.19
  Q 496.55 76.04 496.40 67.77
  C 496.19 56.56 489.08 48.46 478.19 47.01
  C 470.05 45.92 461.94 47.88 456.41 54.17
  C 453.06 57.98 452.52 61.73 452.51 67.19
  Q 452.48 86.10 452.50 105.00
  C 452.51 114.39 437.86 114.36 437.88 104.50
  Q 437.97 73.66 437.98 42.83
  C 437.98 38.72 439.12 35.48 443.25 34.54
  C 448.61 33.31 452.62 36.56 452.53 42.25
  Q 452.52 42.80 452.94 42.44
  C 473.08 25.57 505.09 33.02 510.15 60.80
  Q 510.60 63.29 511.00 65.88
  Z"
/>
<path fill="#60318a" d="
  M 317.97 39.62
  Q 310.81 43.16 304.99 47.55
  C 264.95 43.52 264.79 106.12 304.31 102.75
  L 306.50 105.05
  Q 306.87 105.43 307.33 105.17
  L 319.01 98.56
  Q 319.45 98.31 319.21 97.87
  Q 318.85 97.21 318.19 96.73
  C 330.28 85.37 330.56 66.28 319.18 54.49
  Q 326.64 48.17 337.00 48.33
  C 339.17 48.36 340.36 47.53 342.04 46.45
  Q 342.04 61.78 342.00 77.00
  Q 341.96 91.57 331.29 103.35
  Q 327.85 102.84 324.97 101.38
  A 1.54 1.53 43.7 0 0 323.51 101.41
  L 311.53 108.20
  Q 310.43 108.82 311.49 109.49
  L 315.55 112.06
  A 2.41 2.40 -42.7 0 0 317.97 112.15
  L 327.01 107.29
  Q 316.30 115.98 301.99 116.22
  C 278.71 116.60 260.94 99.79 260.04 76.25
  C 259.66 66.14 262.73 56.15 268.92 48.16
  C 280.48 33.21 301.49 29.73 317.97 39.62
  Z"
/>
<path fill="#60318a" d="
  M 0.00 99.77
  L 0.00 96.52
  C 1.17 92.78 5.04 89.80 8.92 90.55
  Q 10.51 90.85 13.89 93.55
  Q 25.65 102.94 41.25 99.23
  C 48.70 97.46 53.37 90.60 46.78 83.97
  C 42.72 79.89 31.45 78.38 25.50 77.05
  Q 16.14 74.97 9.61 69.67
  C 2.37 63.80 1.15 52.00 6.68 44.73
  C 17.12 31.02 43.13 32.13 55.92 41.08
  C 58.34 42.77 61.94 46.16 62.39 49.23
  C 63.35 55.74 54.78 57.12 50.87 54.12
  C 48.56 52.34 46.33 50.18 43.68 49.13
  Q 34.12 45.34 24.28 48.19
  C 20.35 49.33 16.51 51.84 17.23 56.25
  Q 18.02 61.10 22.49 63.03
  C 37.01 69.29 65.99 68.18 63.94 91.75
  C 62.07 113.28 35.52 115.26 19.76 111.44
  Q 6.69 108.28 0.00 99.77
  Z"
/>
<path fill="#60318a" d="
  M 91.88 79.25
  C 95.37 98.69 117.07 106.02 133.12 96.90
  Q 138.09 94.07 139.28 93.85
  Q 143.51 93.06 146.20 97.29
  C 148.41 100.76 146.32 103.48 143.27 105.50
  C 115.48 123.88 77.22 107.68 78.48 71.99
  C 79.27 49.85 94.73 34.15 117.49 34.48
  Q 141.03 34.82 149.49 55.72
  C 151.42 60.50 156.19 78.80 146.25 78.77
  Q 119.26 78.69 92.28 78.78
  Q 91.79 78.78 91.88 79.25
  Z
  M 138.94 66.89
  C 135.92 38.76 96.57 40.70 91.96 66.79
  Q 91.86 67.37 92.45 67.37
  L 138.51 67.37
  Q 138.99 67.37 138.94 66.89
  Z"
/>
<rect fill="#32ab57" x="396.38" y="34.32" width="14.58" height="77.48" rx="6.93"/>
<path fill="#60318a" d="
  M 227.22 104.43
  C 207.95 121.24 175.19 113.60 170.03 86.67
  Q 169.31 82.91 169.26 74.79
  Q 169.16 59.48 169.24 44.18
  Q 169.26 39.61 170.61 37.59
  C 173.30 33.58 180.97 33.98 183.03 38.63
  Q 183.76 40.28 183.75 44.47
  Q 183.75 58.21 183.75 71.94
  Q 183.75 82.05 185.24 86.41
  Q 189.81 99.76 206.51 100.03
  C 215.17 100.16 224.58 95.35 227.06 86.59
  Q 227.72 84.27 227.72 78.34
  Q 227.73 60.04 227.80 41.75
  C 227.84 32.22 242.55 32.50 242.49 42.50
  Q 242.30 72.62 242.28 102.73
  C 242.27 107.95 240.93 112.76 234.97 112.56
  Q 227.91 112.33 227.73 104.65
  Q 227.71 103.99 227.22 104.43
  Z"
/>
<path fill="#32ab57" d="
  M 326.80 42.14
  L 323.68 43.89
  L 312.90 50.02
  L 299.22 57.73
  Q 298.56 58.10 298.86 57.40
  Q 301.13 52.14 304.99 47.55
  Q 310.81 43.16 317.97 39.62
  Q 322.09 36.77 326.81 35.30
  L 337.26 35.13
  Q 339.20 35.10 337.51 36.06
  L 326.80 42.14
  Z"
/>
<path fill="#32ab57" d="
  M 342.04 46.45
  C 340.36 47.53 339.17 48.36 337.00 48.33
  Q 326.64 48.17 319.18 54.49
  Q 314.92 58.06 312.59 62.78
  Q 312.34 63.30 311.83 63.59
  L 295.32 72.97
  A 0.19 0.19 0.0 0 1 295.04 72.78
  L 295.99 65.35
  Q 296.03 65.03 296.31 64.86
  L 317.32 52.90
  L 342.12 38.78
  Q 346.37 35.62 352.01 40.30
  Q 352.34 40.57 351.97 40.78
  L 342.04 46.45
  Z"
/>
<path fill="#32ab57" d="
  M 361.76 48.15
  L 352.53 53.48
  Q 352.29 53.62 352.05 53.48
  L 345.77 49.95
  A 0.09 0.09 0.0 0 1 345.77 49.79
  L 356.50 43.70
  Q 356.92 43.46 357.27 43.80
  L 361.76 48.15
  Z"
/>
<path fill="#32ab57" d="
  M 376.85 52.68
  L 359.71 62.40
  A 0.30 0.30 0.0 0 1 359.31 62.31
  L 355.98 57.37
  A 0.30 0.30 0.0 0 1 356.08 56.94
  L 376.55 45.31
  A 0.30 0.30 0.0 0 1 377.00 45.58
  L 377.00 52.42
  A 0.30 0.30 0.0 0 1 376.85 52.68
  Z"
/>
<path fill="#32ab57" d="
  M 376.83 65.70
  L 362.88 73.60
  A 0.34 0.34 0.0 0 1 362.37 73.37
  L 361.26 67.26
  A 0.34 0.34 0.0 0 1 361.43 66.90
  L 376.49 58.35
  A 0.34 0.34 0.0 0 1 377.00 58.64
  L 377.00 65.40
  A 0.34 0.34 0.0 0 1 376.83 65.70
  Z"
/>
<path fill="#32ab57" d="
  M 309.36 78.00
  L 296.31 85.41
  A 0.33 0.33 0.0 0 1 295.82 85.16
  L 294.99 78.86
  A 0.33 0.33 0.0 0 1 295.15 78.53
  L 309.38 70.46
  A 0.33 0.33 0.0 0 1 309.87 70.76
  L 309.53 77.73
  A 0.33 0.33 0.0 0 1 309.36 78.00
  Z"
/>
<path fill="#32ab57" d="
  M 360.27 88.09
  Q 360.15 88.16 360.19 88.03
  L 362.35 79.60
  Q 362.41 79.34 362.64 79.22
  L 376.76 71.19
  A 0.16 0.16 0.0 0 1 377.00 71.34
  L 376.95 78.40
  A 0.38 0.38 0.0 0 1 376.76 78.73
  L 360.27 88.09
  Z"
/>
<path fill="#32ab57" d="
  M 312.21 89.37
  L 300.18 96.22
  A 0.30 0.30 0.0 0 1 299.76 96.08
  L 297.35 90.60
  A 0.30 0.30 0.0 0 1 297.48 90.22
  L 309.88 83.17
  A 0.30 0.30 0.0 0 1 310.31 83.33
  L 312.35 89.01
  A 0.30 0.30 0.0 0 1 312.21 89.37
  Z"
/>
<path fill="#32ab57" d="
  M 332.33 117.00
  L 330.51 117.00
  L 323.03 115.26
  Q 322.36 115.10 322.96 114.76
  C 331.02 110.14 338.97 105.49 347.29 101.37
  C 350.25 99.90 353.06 97.65 355.56 96.23
  Q 365.63 90.54 375.19 85.07
  Q 376.44 84.36 376.01 85.73
  L 374.00 92.18
  Q 373.57 93.56 372.31 94.28
  L 332.33 117.00
  Z"
/>
<path fill="#32ab57" d="
  M 318.19 96.73
  Q 318.85 97.21 319.21 97.87
  Q 319.45 98.31 319.01 98.56
  L 307.33 105.17
  Q 306.87 105.43 306.50 105.05
  L 304.31 102.75
  L 302.80 100.83
  A 0.48 0.48 0.0 0 1 302.94 100.11
  L 314.48 93.56
  Q 314.96 93.29 315.34 93.69
  L 318.19 96.73
  Z"
/>
<path fill="#32ab57" d="
  M 331.29 103.35
  L 332.01 103.40
  Q 332.98 103.45 332.16 103.98
  L 327.01 107.29
  L 317.97 112.15
  A 2.41 2.40 -42.7 0 1 315.55 112.06
  L 311.49 109.49
  Q 310.43 108.82 311.53 108.20
  L 323.51 101.41
  A 1.54 1.53 43.7 0 1 324.97 101.38
  Q 327.85 102.84 331.29 103.35
  Z"
/>
<path fill="#32ab57" d="
  M 343.39 116.14
  L 367.01 102.73
  Q 367.84 102.27 367.24 103.00
  C 362.01 109.37 352.18 116.00 343.48 116.46
  Q 342.77 116.49 343.39 116.14
  Z"
/>
</svg>
