<svg xmlns="http://www.w3.org/2000/svg" fill="currentColor" height="24" viewBox="0 -960 960 960" width="24"><path d="M192.582-171.077q-16.351 0-27.39-11.059-11.038-11.06-11.038-27.409v-421.568q0-16.348 11.058-27.402 11.057-11.053 27.404-11.053H308v-115.37q0-16.34 11.058-27.393 11.057-11.054 27.404-11.054h267.713q16.349 0 27.409 11.058 11.06 11.058 11.06 27.404v269.231h115.391q16.35 0 27.388 11.06 11.039 11.06 11.039 27.41v267.718q0 16.35-11.058 27.389-11.058 11.038-27.404 11.038H538.769v-153.846H421.846v153.846H192.582ZM191.077-208H308v-116.923H191.077V-208Zm0-153.846H308v-116.923H191.077v116.923Zm0-153.846H308v-116.923H191.077v116.923Zm153.846 153.846h116.923v-116.923H344.923v116.923Zm0-153.846h116.923v-116.923H344.923v116.923Zm0-153.846h116.923v-116.923H344.923v116.923Zm153.846 307.692h116.923v-116.923H498.769v116.923Zm0-153.846h116.923v-116.923H498.769v116.923Zm0-153.846h116.923v-116.923H498.769v116.923ZM652.615-208h116.923v-116.923H652.615V-208Zm0-153.846h116.923v-116.923H652.615v116.923Z"/></svg>
