<svg xmlns="http://www.w3.org/2000/svg" fill="currentColor" height="24" viewBox="0 -960 960 960" width="24"><path d="M306.461-166.154q-25.447 0-43.492-18.045-18.046-18.046-18.046-43.493v-490.462h-20.731q-7.769 0-13.211-5.45-5.443-5.45-5.443-13.038 0-7.589 5.443-13.012 5.442-5.423 13.211-5.423h137.039v-.5q0-11.654 8.692-20.346 8.692-8.693 20.731-8.693h179.692q11.654 0 20.346 8.693 8.693 8.692 8.693 20.346v.5h137.586q7.222 0 12.664 5.479 5.442 5.479 5.442 12.817 0 7.781-5.471 13.204-5.471 5.423-12.798 5.423h-21.115v490.462q0 25.447-18.046 43.493-18.046 18.045-43.493 18.045H306.461Zm88.923-116.192h36.924v-356.923h-36.924v356.923Zm132.924 0h36.923v-356.923h-36.923v356.923Z"/></svg>
