<svg xmlns="http://www.w3.org/2000/svg" fill="currentColor" viewBox="0 -960 960 960" width="24"><path d="M480-504q-48.731 0-82.827-34.096t-34.096-82.827q0-48.731 34.096-82.827T480-737.846q48.731 0 82.827 34.096t34.096 82.827q0 48.731-34.096 82.827T480-504ZM205.538-261.846v-23.769q0-24.197 13.859-44.907 13.858-20.711 38.072-32.347 56.251-26.56 111.872-40.096 55.62-13.535 110.671-13.535 55.05 0 110.75 13.519t111.861 40.086q24.172 11.638 38.005 32.355 13.834 20.716 13.834 44.919v23.775q0 16.346-11.058 27.404T716-223.384H244q-16.346 0-27.404-11.058t-11.058-27.404Z"/></svg>
