<svg xmlns="http://www.w3.org/2000/svg" fill="currentColor" height="24" viewBox="0 -960 960 960" width="24"><path d="M297.395-164.559q-26.624-1.021-50.606-13.654-23.981-12.633-45.328-37.441-35.574-40.261-55.441-99.092-19.866-58.831-19.866-122.422 0-74.094 27.686-139.313t75.615-113.542q47.929-48.323 112.671-76.381 64.741-28.058 137.865-28.058 73.305 0 137.913 27.892 64.607 27.893 112.467 76.097 47.86 48.204 75.668 112.923 27.807 64.72 27.807 138.665 0 62.731-20.096 121.135t-55.016 100.327q-22.78 26.962-47.18 39.923-24.4 12.962-51.539 12.962-13.265 0-26.477-3.096-13.211-3.097-25.846-9.673l-55.5-27.885q-17.615-8.423-35.923-12.827-18.307-4.404-37.038-4.404-19.5 0-37.673 4.404-18.173 4.404-34.635 12.827l-54.615 27.885q-13.776 6.894-27.009 10.332-13.234 3.437-27.904 2.416ZM480.07-381.731q24.622 0 41.603-16.852t16.981-41.467q0-8.601-2.654-17.045-2.654-8.443-7.192-15.559l75.077-96.077q15.276 14.52 26.792 31.472 11.515 16.951 16.554 36.913 1.577 7.308 6.961 11.904 5.385 4.596 12.804 4.596 9.658 0 14.581-8.425 4.923-8.426 1.462-18.69-22.808-64.924-78.384-105.385-55.577-40.462-124.549-40.462-69.183 0-125.125 40.254-55.942 40.253-78.904 105.593-3.462 10.264 1.654 18.69 5.115 8.425 14.416 8.425 6.979 0 11.935-4.596 4.957-4.596 7.033-11.904 16.731-54.539 63.857-87.039t105.067-32.5q24.922 0 49.115 7.481 24.192 7.481 45.73 21.019l-75.307 96.039q-4.423-1.654-9.749-2.481-5.327-.827-9.903-.827-24.586 0-41.39 16.938-16.804 16.939-16.804 41.673 0 24.735 16.858 41.524 16.858 16.788 41.481 16.788Z"/></svg>
