<svg xmlns="http://www.w3.org/2000/svg" fill="currentColor" height="24" viewBox="0 -960 960 960" width="24"><path d="M791.385-369.423v-209.346L509.846-426.115q-13.658 7.846-29.713 7.846-16.056 0-29.979-7.846L182.192-573.038q-8.077-4.731-12.192-11.77-4.116-7.038-4.116-15.096 0-7.673 4.116-14.692 4.115-7.019 12.192-12.135L450.624-772.75q6.779-3.663 14.097-5.572 7.317-1.909 15.279-1.909t15.269 2q7.308 2 14.462 5.846L812.27-608.846q7.168 3.736 11.603 11.2 4.435 7.465 4.435 16.415v211.808q0 7.769-5.45 13.212-5.45 5.442-12.846 5.442-7.781 0-13.204-5.442-5.423-5.443-5.423-13.212ZM450.154-237.961l-173.539-94.308q-14.654-8.077-23.173-22.75-8.519-14.673-8.519-31.442v-122.962l205.231 111.962q13.658 7.846 29.713 7.846 16.056 0 29.979-7.846l205.231-111.962v123.103q0 17.013-8.519 31.493-8.519 14.481-23.173 22.558l-173.539 94.308q-6.86 4.231-14.514 6.038-7.654 1.808-15.332 1.808-7.678 0-15.332-1.808-7.654-1.807-14.514-6.038Z"/></svg>
