<svg xmlns="http://www.w3.org/2000/svg" fill="currentColor" height="24" viewBox="0 -960 960 960" width="24"><path d="M673.231-418.346q-32.471 0-55.216-22.745-22.746-22.746-22.746-55.216 0-32.471 22.746-55.409 22.745-22.938 55.216-22.938 32.471 0 55.408 22.938 22.938 22.938 22.938 55.409 0 32.47-22.938 55.216-22.937 22.745-55.408 22.745Zm-146.27 194.962q-13 0-21.98-8.981Q496-241.346 496-254.346v-3.338q0-18.085 9.045-32.8 9.045-14.716 25.917-21.247 33.961-13.73 69.485-20.846 35.524-7.115 72.821-7.115t72.821 7.115q35.524 7.116 69.796 20.846 15.971 6.423 25.216 21.193 9.245 14.769 9.245 32.854v3.338q0 13-8.981 21.981-8.98 8.981-21.98 8.981H526.961ZM384-504q-48.385 0-82.654-34.269t-34.269-82.654q0-48.385 34.269-82.654T384-737.846q48.385 0 82.654 34.269t34.269 82.654q0 48.385-34.269 82.654T384-504ZM109.538-285.63q0-25.271 14-46.147 14-20.877 38.159-31.257 51.78-26.143 107.882-39.805Q325.681-416.5 383.958-416.5q21.35 0 42.408 1.75 21.057 1.75 42.25 5.211L425.5-366.808q-18.615 20.923-27.904 47.731-9.288 26.808-9.288 54.154v11.289q0 8.985 2.225 16.465 2.224 7.48 7.89 13.785H148q-16.346 0-27.404-11.058t-11.058-27.404v-23.784Z"/></svg>
